<svg xmlns="http://www.w3.org/2000/svg" viewBox="0 0 200 200"><defs><style>.cls-1{fill:#2f42bd;}.cls-2{fill:#c500ff;}.cls-3{fill:#9700ff;}</style></defs><g id="Layer_2" data-name="Layer 2"><g id="Layer_1-2" data-name="Layer 1"><path class="cls-1" d="M184.58,93.6h0a14,14,0,0,0,8.33-2.72,9.67,9.67,0,0,0-5-4.37c-26.3-8.31-53.29-2.08-81-9.69-3.62-1-7.55-.73-11.43-.47.06,8.94,6.37,17.25,15.41,17.25h0a4,4,0,0,1,7.6,1.54v24.68c20.08.73,40.68,3.67,59.25-2.87V94.86A3.53,3.53,0,0,1,184.58,93.6Z"/><path class="cls-1" d="M56.26,19.73a32.6,32.6,0,0,0-17-17.55A80.25,80.25,0,0,1,30.8,7.61C21.91,12.22,12.23,14.8,3,17.79A35.15,35.15,0,0,0,0,32v9C19.11,31,36.79,16.57,56.26,19.73Z"/><path class="cls-2" d="M59.25,48.57V34.63a38,38,0,0,0-3-14.9C36.79,16.57,19.11,31,0,41v89.75A77.91,77.91,0,0,0,1.56,146.3c2.43-13.24,7.32-26.14,12.63-39C23.61,84,43.28,68.78,59.25,48.57Z"/><path class="cls-3" d="M39.24,2.18A27.67,27.67,0,0,0,28.47,0h0C17.3,0,7.63,7.25,3,17.79c9.26-3,18.94-5.57,27.83-10.18A80.25,80.25,0,0,0,39.24,2.18Z"/><path class="cls-1" d="M157.44,29.76c5.6,1.86,11.82,1.84,17.83,1.84L159.45,6.53a13.84,13.84,0,0,0-23.41,0l-3.21,5.09C138.49,20.32,148.3,27,157.44,29.76Z"/><path class="cls-2" d="M106.92,76.82c27.68,7.61,54.67,1.38,81,9.69a9.67,9.67,0,0,1,5,4.37c6.93-5,9.63-16,4.22-24.62l-7.6-12.05-4.15-6.57c-12.56,17.27-35.76,11.84-54.24,9.11-7.94-1-16.92-2.42-25.47-2.08L98.35,66.26a18.68,18.68,0,0,0-2.86,10.09C99.37,76.09,103.3,75.83,106.92,76.82Z"/><path class="cls-2" d="M103.27,133.33H67c-.23,0-.45,0-.67,0,12,19.83,15,44.27,23.39,66.7h26.52a54.45,54.45,0,0,0,7.91-.57A51.59,51.59,0,0,0,118,180.62C109.92,166.09,101.43,149.45,103.27,133.33Z"/><path class="cls-3" d="M131.14,56.75c18.48,2.73,41.68,8.16,54.24-9.11l-7.63-12.1-2.48-3.94c-6,0-12.23,0-17.83-1.84-9.14-2.78-18.95-9.44-24.61-18.14L118.5,34.33,106,54.21l-.29.46C114.22,54.33,123.2,55.71,131.14,56.75Z"/><path class="cls-3" d="M118.5,119.82v4.86c0,4.78-3.44,8.65-7.69,8.65h-7.54c-1.84,16.12,6.65,32.76,14.72,47.29a51.59,51.59,0,0,1,6.11,18.81c30.26-4.36,53.65-33.45,53.65-68.69V117C159.18,123.49,138.58,120.55,118.5,119.82Z"/><path class="cls-1" d="M59.25,124.68v-1.15a70.31,70.31,0,0,0-4.92-5.19c-4.85-4.85-15.23-4.85-19.38,0C20.42,135,30.1,161.25,44.64,175.78c7,7.34,12.91,15.38,16.53,24.21h28.5c-8.37-22.43-11.42-46.87-23.39-66.7C62.34,132.91,59.25,129.2,59.25,124.68Z"/><path class="cls-3" d="M35,118.34c4.15-4.85,14.53-4.85,19.38,0a70.31,70.31,0,0,1,4.92,5.19v-75c-16,20.21-35.64,35.46-45.06,58.7C8.88,120.16,4,133.06,1.56,146.3,7.81,176.92,32.1,199.79,61.17,200c-3.62-8.83-9.55-16.87-16.53-24.21C30.1,161.25,20.42,135,35,118.34Z"/></g></g></svg>